<?xml version="1.0" encoding="UTF-8" standalone="no"?>
<svg width="780px" height="780px" viewBox="0 0 780 780" version="1.1" xmlns="http://www.w3.org/2000/svg" xmlns:xlink="http://www.w3.org/1999/xlink" xmlns:sketch="http://www.bohemiancoding.com/sketch/ns">
    <!-- Generator: Sketch 3.3.2 (12043) - http://www.bohemiancoding.com/sketch -->
    <title>vector</title>
    <desc>Created with Sketch.</desc>
    <defs></defs>
    <g id="Page-1" stroke="none" stroke-width="1" fill="none" fill-rule="evenodd" sketch:type="MSPage">
        <g id="Artboard-1" sketch:type="MSArtboardGroup" transform="translate(-122.000000, -122.000000)">
            <g id="vector" sketch:type="MSLayerGroup" transform="translate(122.000000, 122.000000)">
                <circle id="face-copy" fill="#FFB800" sketch:type="MSShapeGroup" cx="390" cy="390" r="390"></circle>
                <circle id="face" fill="#FECC4A" sketch:type="MSShapeGroup" cx="390.534247" cy="390.534247" r="365.958904"></circle>
                <rect id="mouth-outline" fill="#000000" sketch:type="MSShapeGroup" x="141.041096" y="425.260274" width="497.917808" height="163.479452" rx="110"></rect>
                <path d="M227.589041,439.150685 L303.452055,439.150685 L303.452055,439.150685 L303.452055,500.054795 L227.589041,500.054795 L227.589041,439.150685 Z M217.972603,439.28818 C185.388593,441.394979 159.316578,467.460982 157.20641,500.054795 L157.20641,500.054795 L217.972603,500.054795 L217.972603,439.28818 Z M227.589041,569.506849 L303.452055,569.506849 L303.452055,569.506849 L303.452055,512.876712 L227.589041,512.876712 L227.589041,569.506849 Z M217.972603,569.369453 C186.818509,567.356512 161.627465,543.455649 157.623707,512.876712 L217.972603,512.876712 L217.972603,569.369453 Z M313.068493,439.150685 L390,439.150685 L390,439.150685 L390,500.054795 L313.068493,500.054795 L313.068493,439.150685 L313.068493,439.150685 Z M313.068493,569.506849 L390,569.506849 L390,569.506849 L390,512.876712 L313.068493,512.876712 L313.068493,569.506849 L313.068493,569.506849 Z M399.616438,439.150685 L475.479452,439.150685 L475.479452,439.150685 L475.479452,500.054795 L399.616438,500.054795 L399.616438,439.150685 L399.616438,439.150685 Z M399.616438,569.506849 L475.479452,569.506849 L475.479452,569.506849 L475.479452,512.876712 L399.616438,512.876712 L399.616438,569.506849 L399.616438,569.506849 Z M485.09589,439.150685 L558.829525,439.150685 C559.54205,439.150685 560.251904,439.162118 560.958914,439.18481 L560.958904,439.18481 L560.958904,500.054795 L485.09589,500.054795 L485.09589,439.150685 L485.09589,439.150685 Z M485.09589,569.506849 L558.829525,569.506849 C559.542044,569.506849 560.251898,569.495408 560.958913,569.472699 L560.958904,569.472699 L560.958904,512.876712 L485.09589,512.876712 L485.09589,569.506849 L485.09589,569.506849 Z M570.575342,440.206227 C599.597891,445.488057 621.917083,469.990186 623.86218,500.054795 L570.575342,500.054795 L570.575342,440.206227 L570.575342,440.206227 Z M570.575342,568.450625 C598.204021,563.419482 619.764978,540.961078 623.444418,512.876712 L623.444418,512.876712 L570.575342,512.876712 L570.575342,568.450625 L570.575342,568.450625 Z" id="teeth-mask" fill="#FFFFFF" sketch:type="MSShapeGroup"></path>
                <ellipse id="left-eye" stroke="#444444" stroke-width="5" fill="#000000" sketch:type="MSShapeGroup" cx="287.424658" cy="313.068493" rx="37.3972603" ry="50.2191781"></ellipse>
                <ellipse id="right-eye" stroke="#444444" stroke-width="5" fill="#000000" sketch:type="MSShapeGroup" cx="496.849315" cy="313.068493" rx="37.3972603" ry="50.2191781"></ellipse>
            </g>
        </g>
    </g>
</svg>